<?xml version="1.0"?>
<svg xmlns="http://www.w3.org/2000/svg" xmlns:xlink="http://www.w3.org/1999/xlink" xmlns:svgjs="http://svgjs.com/svgjs" version="1.1" width="512" height="512" x="0" y="0" viewBox="0 0 36 36" style="enable-background:new 0 0 512 512" xml:space="preserve" class=""><g><path xmlns="http://www.w3.org/2000/svg" d="m31.833 8.377c0 6.917 3.583 11.667 3.583 15s-1.916 10.333-17.249 10.333-17.584-9.417-17.584-13.083c0-17.167 31.25-24.5 31.25-12.25z" fill="#f0e5ff" data-original="#efefef" style="" class=""/><g xmlns="http://www.w3.org/2000/svg" fill="#a4afc1"><path d="m27.467 1.967h1v2h-1z" transform="matrix(.707 -.707 .707 .707 6.093 20.645)" fill="#a4afc1" data-original="#a4afc1" style="" class=""/><path d="m31.533 6.033h1v2h-1z" transform="matrix(.707 -.707 .707 .707 4.409 24.711)" fill="#a4afc1" data-original="#a4afc1" style="" class=""/><path d="m30.856 2.467h2v1h-2z" transform="matrix(.707 -.707 .707 .707 7.233 23.395)" fill="#a4afc1" data-original="#a4afc1" style="" class=""/></g><path xmlns="http://www.w3.org/2000/svg" d="m26 14.25h-16c-1.795 0-3.25-1.455-3.25-3.25 0-1.795 1.455-3.25 3.25-3.25h16c1.795 0 3.25 1.455 3.25 3.25 0 1.795-1.455 3.25-3.25 3.25z" fill="#f3f3f1" data-original="#f3f3f1" style="" class=""/><path xmlns="http://www.w3.org/2000/svg" d="m26 20.75h-16c-1.795 0-3.25-1.455-3.25-3.25 0-1.795 1.455-3.25 3.25-3.25h16c1.795 0 3.25 1.455 3.25 3.25 0 1.795-1.455 3.25-3.25 3.25z" fill="#df2f2f" data-original="#2fdf84" style="" class=""/><path xmlns="http://www.w3.org/2000/svg" d="m26 27.25h-16c-1.795 0-3.25-1.455-3.25-3.25 0-1.795 1.455-3.25 3.25-3.25h16c1.795 0 3.25 1.455 3.25 3.25 0 1.795-1.455 3.25-3.25 3.25z" fill="#f3f3f1" data-original="#f3f3f1" style="" class=""/><path xmlns="http://www.w3.org/2000/svg" d="m9 17.5c0-1.795 1.455-3.25 3.25-3.25h-2.25c-1.795 0-3.25 1.455-3.25 3.25s1.455 3.25 3.25 3.25h2.25c-1.795 0-3.25-1.455-3.25-3.25z" fill="#b80000" data-original="#00b871" style="" class=""/><path xmlns="http://www.w3.org/2000/svg" d="m9 11c0-1.795 1.455-3.25 3.25-3.25h-2.25c-1.795 0-3.25 1.455-3.25 3.25s1.455 3.25 3.25 3.25h2.25c-1.795 0-3.25-1.455-3.25-3.25z" fill="#d5dbe1" data-original="#d5dbe1" style=""/><path xmlns="http://www.w3.org/2000/svg" d="m9 24c0-1.795 1.455-3.25 3.25-3.25h-2.25c-1.795 0-3.25 1.455-3.25 3.25s1.455 3.25 3.25 3.25h2.25c-1.795 0-3.25-1.455-3.25-3.25z" fill="#d5dbe1" data-original="#d5dbe1" style=""/><path xmlns="http://www.w3.org/2000/svg" d="m26 15h-16c-2.206 0-4-1.794-4-4s1.794-4 4-4h16c2.206 0 4 1.794 4 4s-1.794 4-4 4zm-16-6.5c-1.378 0-2.5 1.122-2.5 2.5s1.122 2.5 2.5 2.5h16c1.378 0 2.5-1.122 2.5-2.5s-1.122-2.5-2.5-2.5z" fill="#000000" data-original="#000000" style="" class=""/><path xmlns="http://www.w3.org/2000/svg" d="m26 21.5h-16c-2.206 0-4-1.794-4-4s1.794-4 4-4h16c2.206 0 4 1.794 4 4s-1.794 4-4 4zm-16-6.5c-1.378 0-2.5 1.122-2.5 2.5s1.122 2.5 2.5 2.5h16c1.378 0 2.5-1.122 2.5-2.5s-1.122-2.5-2.5-2.5z" fill="#000000" data-original="#000000" style="" class=""/><path xmlns="http://www.w3.org/2000/svg" d="m26 28h-16c-2.206 0-4-1.794-4-4s1.794-4 4-4h16c2.206 0 4 1.794 4 4s-1.794 4-4 4zm-16-6.5c-1.378 0-2.5 1.122-2.5 2.5s1.122 2.5 2.5 2.5h16c1.378 0 2.5-1.122 2.5-2.5s-1.122-2.5-2.5-2.5z" fill="#000000" data-original="#000000" style="" class=""/><circle xmlns="http://www.w3.org/2000/svg" cx="10" cy="17.5" r="1" fill="#000000" data-original="#000000" style="" class=""/><circle xmlns="http://www.w3.org/2000/svg" cx="14" cy="17.5" r="1" fill="#000000" data-original="#000000" style="" class=""/><circle xmlns="http://www.w3.org/2000/svg" cx="10" cy="11" r="1" fill="#000000" data-original="#000000" style="" class=""/><circle xmlns="http://www.w3.org/2000/svg" cx="14" cy="11" r="1" fill="#000000" data-original="#000000" style="" class=""/><circle xmlns="http://www.w3.org/2000/svg" cx="14" cy="24" r="1" fill="#000000" data-original="#000000" style="" class=""/><circle xmlns="http://www.w3.org/2000/svg" cx="10" cy="24" r="1" fill="#000000" data-original="#000000" style="" class=""/></g></svg>
