<?xml version="1.0"?>
<svg xmlns="http://www.w3.org/2000/svg" xmlns:xlink="http://www.w3.org/1999/xlink" xmlns:svgjs="http://svgjs.com/svgjs" version="1.1" width="512" height="512" x="0" y="0" viewBox="0 0 36 36" style="enable-background:new 0 0 512 512" xml:space="preserve" class=""><g><path xmlns="http://www.w3.org/2000/svg" d="m4.167 27.623c0-6.917-3.583-11.667-3.583-15s1.916-10.333 17.249-10.333 17.583 9.417 17.583 13.083c.001 17.167-31.249 24.5-31.249 12.25z" fill="#f0e6ff" data-original="#efefef" style="" class=""/><g xmlns="http://www.w3.org/2000/svg" fill="#a4afc1"><path d="m5.033 2.467h2v1h-2z" transform="matrix(.707 -.707 .707 .707 -.331 5.135)" fill="#a4afc1" data-original="#a4afc1" style="" class=""/><path d="m.967 6.533h2v1h-2z" transform="matrix(.707 -.707 .707 .707 -4.397 3.451)" fill="#a4afc1" data-original="#a4afc1" style="" class=""/><path d="m1.644 1.967h1v2h-1z" transform="matrix(.707 -.707 .707 .707 -1.47 2.385)" fill="#a4afc1" data-original="#a4afc1" style="" class=""/></g><path xmlns="http://www.w3.org/2000/svg" d="m28.25 23.25h-20.5c-.552 0-1-.448-1-1v-12.5c0-.552.448-1 1-1h20.5c.552 0 1 .448 1 1v12.5c0 .552-.448 1-1 1z" fill="#f3f3f1" data-original="#f3f3f1" style="" class=""/><path xmlns="http://www.w3.org/2000/svg" d="m21.375 20.25h-6.75c-1.036 0-1.875-.839-1.875-1.875 0-1.036.839-1.875 1.875-1.875h6.75c1.036 0 1.875.839 1.875 1.875 0 1.036-.839 1.875-1.875 1.875z" fill="#df2f2f" data-original="#2fdf84" style="" class=""/><path xmlns="http://www.w3.org/2000/svg" d="m21.375 16.5h-6.75c-1.036 0-1.875-.839-1.875-1.875 0-1.036.839-1.875 1.875-1.875h6.75c1.036 0 1.875.839 1.875 1.875 0 1.036-.839 1.875-1.875 1.875z" fill="#df2f2f" data-original="#2fdf84" style="" class=""/><path xmlns="http://www.w3.org/2000/svg" d="m15 18.375c0-1.036.839-1.875 1.875-1.875h-2.25c-1.036 0-1.875.839-1.875 1.875s.839 1.875 1.875 1.875h2.25c-1.036 0-1.875-.839-1.875-1.875z" fill="#b80000" data-original="#00b871" style="" class=""/><path xmlns="http://www.w3.org/2000/svg" d="m15 14.625c0-1.036.839-1.875 1.875-1.875h-2.25c-1.036 0-1.875.839-1.875 1.875s.839 1.875 1.875 1.875h2.25c-1.036 0-1.875-.839-1.875-1.875z" fill="#b80000" data-original="#00b871" style="" class=""/><path xmlns="http://www.w3.org/2000/svg" d="m9 22.25v-12.5c0-.552.448-1 1-1h-2.25c-.552 0-1 .448-1 1v12.5c0 .552.448 1 1 1h2.25c-.552 0-1-.448-1-1z" fill="#d5dbe1" data-original="#d5dbe1" style="" class=""/><path xmlns="http://www.w3.org/2000/svg" d="m21.375 21h-6.75c-1.447 0-2.625-1.178-2.625-2.625s1.178-2.625 2.625-2.625h6.75c1.447 0 2.625 1.178 2.625 2.625s-1.178 2.625-2.625 2.625zm-6.75-3.75c-.62 0-1.125.505-1.125 1.125s.505 1.125 1.125 1.125h6.75c.62 0 1.125-.505 1.125-1.125s-.505-1.125-1.125-1.125z" fill="#000000" data-original="#000000" style="" class=""/><path xmlns="http://www.w3.org/2000/svg" d="m21.375 17.25h-6.75c-1.447 0-2.625-1.178-2.625-2.625s1.178-2.625 2.625-2.625h6.75c1.447 0 2.625 1.178 2.625 2.625s-1.178 2.625-2.625 2.625zm-6.75-3.75c-.62 0-1.125.505-1.125 1.125s.505 1.125 1.125 1.125h6.75c.62 0 1.125-.505 1.125-1.125s-.505-1.125-1.125-1.125z" fill="#000000" data-original="#000000" style="" class=""/><path xmlns="http://www.w3.org/2000/svg" d="m15.5 12.75h1.5v7.5h-1.5z" fill="#000000" data-original="#000000" style="" class=""/><path xmlns="http://www.w3.org/2000/svg" d="m28.25 24h-20.5c-.965 0-1.75-.785-1.75-1.75v-12.5c0-.965.785-1.75 1.75-1.75h20.5c.965 0 1.75.785 1.75 1.75v12.5c0 .965-.785 1.75-1.75 1.75zm-20.5-14.5c-.138 0-.25.112-.25.25v12.5c0 .138.112.25.25.25h20.5c.138 0 .25-.112.25-.25v-12.5c0-.138-.112-.25-.25-.25z" fill="#000000" data-original="#000000" style="" class=""/><path xmlns="http://www.w3.org/2000/svg" d="m13 26.5h10v1.5h-10z" fill="#000000" data-original="#000000" style="" class=""/><path xmlns="http://www.w3.org/2000/svg" d="m17.25 23.25h1.5v4h-1.5z" fill="#000000" data-original="#000000" style="" class=""/></g></svg>
