<?xml version="1.0"?>
<svg xmlns="http://www.w3.org/2000/svg" xmlns:xlink="http://www.w3.org/1999/xlink" xmlns:svgjs="http://svgjs.com/svgjs" version="1.1" width="512" height="512" x="0" y="0" viewBox="0 0 36 36" style="enable-background:new 0 0 512 512" xml:space="preserve" class=""><g><path xmlns="http://www.w3.org/2000/svg" d="m3.794 24.645c6.203 3.061 8.876 8.376 11.866 9.851 2.989 1.475 10.115 2.854 16.9-10.896s-.663-19.935-3.951-21.558c-15.394-7.596-35.8 17.182-24.815 22.603z" fill="#f0e6ff" data-original="#efefef" style="" class=""/><g xmlns="http://www.w3.org/2000/svg" fill="#a4afc1"><path d="m7.567 5.677h1v2h-1z" fill="#a4afc1" data-original="#a4afc1" style="" class=""/><path d="m7.567 11.427h1v2h-1z" fill="#a4afc1" data-original="#a4afc1" style="" class=""/><path d="m4.067 8.927h2v1h-2z" fill="#a4afc1" data-original="#a4afc1" style="" class=""/></g><path xmlns="http://www.w3.org/2000/svg" d="m16.25 25.75h3.5v3.5h-3.5z" fill="#df2f2f" data-original="#2fdf84" style="" class=""/><path xmlns="http://www.w3.org/2000/svg" d="m13.75 17.25v1.5c0 .828.672 1.5 1.5 1.5h5.5c.828 0 1.5-.672 1.5-1.5v-1.5z" fill="#df2f2f" data-original="#2fdf84" style="" class=""/><path xmlns="http://www.w3.org/2000/svg" d="m20.75 6.75h-5.5c-.828 0-1.5.672-1.5 1.5v9h8.5v-9c0-.828-.672-1.5-1.5-1.5z" fill="#f3f3f1" data-original="#f3f3f1" style="" class=""/><path xmlns="http://www.w3.org/2000/svg" d="m16.25 25.75h3.5v3.5h-3.5z" fill="#df2f2f" data-original="#2fdf84" style="" class=""/><path xmlns="http://www.w3.org/2000/svg" d="m15.75 18.75v-1.5h-2v1.5c0 .828.672 1.5 1.5 1.5h2c-.828 0-1.5-.672-1.5-1.5z" fill="#b80000" data-original="#00b871" style="" class=""/><path xmlns="http://www.w3.org/2000/svg" d="m17.25 6.75h-2c-.828 0-1.5.672-1.5 1.5v9h2v-9c0-.828.672-1.5 1.5-1.5z" fill="#d5dbe1" data-original="#d5dbe1" style="" class=""/><path xmlns="http://www.w3.org/2000/svg" d="m16.25 25.75h2v3.5h-2z" fill="#b80000" data-original="#00b871" style="" class=""/><path xmlns="http://www.w3.org/2000/svg" d="m20.75 21h-5.5c-1.241 0-2.25-1.009-2.25-2.25v-10.5c0-1.241 1.009-2.25 2.25-2.25h5.5c1.241 0 2.25 1.009 2.25 2.25v10.5c0 1.241-1.009 2.25-2.25 2.25zm-5.5-13.5c-.414 0-.75.336-.75.75v10.5c0 .414.336.75.75.75h5.5c.414 0 .75-.336.75-.75v-10.5c0-.414-.336-.75-.75-.75z" fill="#000000" data-original="#000000" style="" class=""/><path xmlns="http://www.w3.org/2000/svg" d="m13.75 16.5h8.5v1.5h-8.5z" fill="#000000" data-original="#000000" style="" class=""/><path xmlns="http://www.w3.org/2000/svg" d="m17.25 20.25h1.5v5.25h-1.5z" fill="#000000" data-original="#000000" style="" class=""/><path xmlns="http://www.w3.org/2000/svg" d="m19.75 30h-3.5c-.414 0-.75-.336-.75-.75v-3.5c0-.414.336-.75.75-.75h3.5c.414 0 .75.336.75.75v3.5c0 .414-.336.75-.75.75zm-2.75-1.5h2v-2h-2z" fill="#000000" data-original="#000000" style="" class=""/><path xmlns="http://www.w3.org/2000/svg" d="m9 26.75h8v1.5h-8z" fill="#000000" data-original="#000000" style="" class=""/><path xmlns="http://www.w3.org/2000/svg" d="m19 26.75h8v1.5h-8z" fill="#000000" data-original="#000000" style="" class=""/></g></svg>
